<?xml version="1.0" encoding="utf-8"?>
<!-- Generator: Adobe Illustrator 22.0.1, SVG Export Plug-In . SVG Version: 6.00 Build 0)  -->
<svg version="1.1" id="圖層_1" xmlns="http://www.w3.org/2000/svg" xmlns:xlink="http://www.w3.org/1999/xlink" x="0px" y="0px"
	 viewBox="0 0 382.1 342" style="enable-background:new 0 0 382.1 342;" xml:space="preserve">
<style type="text/css">
	.st0{fill:#606060;}
	.st1{fill:#FDFDFD;}
</style>
<g>
	<path class="st0" d="M170.6,333c-2.3,0-4.7,0-7,0c-2.8-1.7-5.5-3.6-7.9-5.8c-3.7-3.5-8.1-5.7-13.1-6.8c-7.1-1.6-13.5-4.7-18.7-10
		c-6.3-6.6-6.1-15,0.5-21.2c2.4-2.3,5.3-4,8.2-5.7c4.6-2.7,9.3-5.2,13.4-8.6c2.5-2,4.8-4.2,6.3-7c2.3-4.3,1.3-8.2-2.7-10.8
		c-2.8-1.9-6-2.7-9.4-3c-6.2-0.4-12.3,0.4-18.5,0.7c-14,0.5-26.7-3.2-37.6-12.2c-3-2.5-5.9-5.1-8.9-7.7c-2.8-2.4-3.4-2.5-6.6-0.4
		c-5.3,3.4-10.1,7.6-15.2,11.3c-6.6,4.8-14.5,4.1-20.1-1.9c-2.2-2.3-3-5-1.9-8.1c0.5-1.4,1.2-2.7,1.9-4.1c2.7-5.3,2.2-4.2-2.4-5.5
		c-3.1-0.9-6.4-1.6-7.2-5.3c-0.7-3.5,1.7-5.9,4-8.1c0.3-0.3,0.6-0.5,1-0.8c2.6-1.8,5.2-3.6,7.8-5.3c1-0.7,2-1.2,2.7-2.2
		c0.4-0.6,1.1-1.2,0.6-2c-0.4-0.7-1.2-0.3-1.8-0.2c-5.2,0.5-9.3,2.9-12.6,6.9c-1,1.2-2,2.4-3.1,3.6c-1.5,1.7-3.3,2.2-5.4,1.2
		c-3.1-1.4-6.2-2.9-9.2-4.5c-2.9-1.7-3.6-4.5-2.1-7.5c1.5-3,4-5.1,6.9-6.7c8.9-4.8,17.7-9.9,27.4-13.2c3.6-1.3,3.9-2.2,1.8-5.5
		c-4.5-6.9-8.9-13.8-12.8-21.2c-8.5-16.4-9.3-33.8-6.7-51.6c3.3-22.5,13.1-42.2,26.6-60.3c11.5-15.3,26.3-25.2,44.9-29.6
		c10.4-2.5,21.1-3.8,31.7-5.2C134,7.5,142.5,7,151,8.3c14.7,2.1,27.9,7.9,40.3,15.9c14.5,9.4,27.5,20.7,40.4,32.2
		c20.1,18,32.3,39.9,33.9,67.2c0.2,3.1,1.2,3.7,4,2.4c13.1-6.4,27-8.2,41.3-7.5c2.4,0.1,4.6,0.7,6.7,1.8c9.5,4.9,19.3,9,29,13.3
		c15.4,6.9,25.7,18.3,29.5,34.9c4.8,20.6,3,40.9-4.9,60.5c-2.2,5.3-3.7,10.6-3.8,16.4c-0.1,5.8-2.7,8.7-8.3,10.3
		c-4.1,1.1-8,2.8-11.3,5.6c-1.9,1.7-4.2,2.5-6.7,2.4c-3-0.1-5.5,0.9-7.9,2.6c-18.1,13.2-37.9,16.6-59.2,10.1
		c-17.8-5.4-35.3-11.7-51.4-21.4c-2.2-1.3-3.4-1.1-3.8,1c-1.3,6.7-4.1,12.8-6.1,19.2c-1.4,4.5-2.8,9.1-1.8,13.9
		c1.8,8.5,9.6,14.2,18.2,13.1c3.3-0.4,6.5,0.2,8.8,2.6c4,4.4,8.4,8.3,12.7,12.3c2.7,2.6,2,6.1-1.3,7.8c-1.9,1-3.9,1.4-6,0.8
		c-2.1-0.5-4.2-1.2-5.9-2.5c-7.4-5.8-16-9.1-24.7-12.3c-8.7-3.2-16.2-8.1-20.9-16.5c-1.4-2.5-3.8-3.5-6.6-3.2
		c-4.4,0.3-8.6,0-12.9-1.1c-2.1-0.5-4.3-0.6-6.5-0.4c-6.3,0.7-11.8,3.4-17.2,6.4c-2.4,1.4-3.8,3.7-4.5,6.4c-0.8,3.2,0.1,4.8,3.4,5.3
		c2.6,0.4,5.2,0.2,7.7-0.1c3.1-0.3,5.8,0.3,7.9,2.7c3.7,4.2,6.7,8.9,8.7,14.2C173.1,327.8,173,330.6,170.6,333z"/>
	<path class="st1" d="M170.6,333c2.5-2.4,2.6-5.2,1.4-8.3c-2-5.3-5-9.9-8.7-14.2c-2.1-2.4-4.8-3.1-7.9-2.7c-2.6,0.3-5.2,0.4-7.7,0.1
		c-3.3-0.5-4.3-2-3.4-5.3c0.7-2.7,2-5,4.5-6.4c5.4-3,10.9-5.7,17.2-6.4c2.2-0.2,4.4-0.2,6.5,0.4c4.3,1.1,8.5,1.4,12.9,1.1
		c2.8-0.2,5.1,0.7,6.6,3.2c4.7,8.4,12.2,13.3,20.9,16.5c8.7,3.2,17.3,6.5,24.7,12.3c1.7,1.3,3.8,2,5.9,2.5c2.1,0.5,4.2,0.1,6-0.8
		c3.3-1.7,4-5.3,1.3-7.8c-4.3-4-8.7-8-12.7-12.3c-2.2-2.5-5.5-3-8.8-2.6c-8.6,1.1-16.4-4.6-18.2-13.1c-1-4.9,0.3-9.4,1.8-13.9
		c2-6.4,4.9-12.6,6.1-19.2c0.4-2.1,1.6-2.4,3.8-1c16.1,9.7,33.6,16,51.4,21.4c21.3,6.5,41.1,3.1,59.2-10.1c2.3-1.7,4.9-2.7,7.9-2.6
		c2.5,0.1,4.7-0.7,6.7-2.4c3.3-2.8,7.2-4.4,11.3-5.6c5.7-1.6,8.3-4.5,8.3-10.3c0.1-5.8,1.6-11,3.8-16.4c8-19.6,9.7-39.9,4.9-60.5
		c-3.8-16.5-14.1-28-29.5-34.9c-9.7-4.3-19.5-8.5-29-13.3c-2.1-1.1-4.3-1.6-6.7-1.8c-14.3-0.6-28.2,1.1-41.3,7.5
		c-2.7,1.4-3.8,0.7-4-2.4c-1.6-27.3-13.8-49.2-33.9-67.2c-12.9-11.5-25.8-22.8-40.4-32.2c-12.4-8-25.6-13.8-40.3-15.9
		c-8.5-1.2-17-0.7-25.4,0.3c-10.6,1.4-21.3,2.8-31.7,5.2c-18.5,4.4-33.4,14.3-44.9,29.6c-13.6,18.1-23.3,37.8-26.6,60.3
		c-2.6,17.8-1.9,35.2,6.7,51.6c3.8,7.3,8.3,14.2,12.8,21.2c2.1,3.2,1.9,4.2-1.8,5.5c-9.6,3.3-18.5,8.4-27.4,13.2
		c-2.9,1.6-5.4,3.7-6.9,6.7c-1.5,3.1-0.9,5.9,2.1,7.5c3,1.7,6.1,3.1,9.2,4.5c2.1,1,3.9,0.4,5.4-1.2c1.1-1.2,2.1-2.4,3.1-3.6
		c3.3-3.9,7.4-6.3,12.6-6.9c0.6-0.1,1.4-0.5,1.8,0.2c0.5,0.8-0.2,1.4-0.6,2c-0.7,1-1.7,1.6-2.7,2.2c-2.6,1.8-5.2,3.6-7.8,5.3
		c-0.3,0.2-0.7,0.5-1,0.8c-2.3,2.3-4.7,4.6-4,8.1c0.8,3.7,4,4.4,7.2,5.3c4.6,1.3,5.1,0.2,2.4,5.5c-0.7,1.3-1.4,2.7-1.9,4.1
		c-1.1,3-0.3,5.7,1.9,8.1c5.6,5.9,13.5,6.7,20.1,1.9c5.1-3.7,9.9-7.9,15.2-11.3c3.2-2,3.8-2,6.6,0.4c2.9,2.6,5.8,5.2,8.9,7.7
		c10.9,9,23.6,12.7,37.6,12.2c6.2-0.2,12.3-1,18.5-0.7c3.4,0.2,6.6,1.1,9.4,3c4,2.7,5,6.5,2.7,10.8c-1.5,2.8-3.8,5-6.3,7
		c-4.2,3.4-8.8,5.9-13.4,8.6c-2.9,1.7-5.8,3.4-8.2,5.7c-6.6,6.3-6.8,14.6-0.5,21.2c5.1,5.3,11.6,8.4,18.7,10c5,1.2,9.4,3.3,13.1,6.8
		c2.4,2.3,5.1,4.1,7.9,5.8c-53.8,0-107.6,0-161.5,0c-1.6,0-2.1-0.2-2.1-2C0.1,223.4,0.1,115.8,0,8.1C0,6.2,0.5,6,2.2,6
		c126.6,0,253.1,0,379.7,0c1.7,0,2.2,0.3,2.2,2.1c-0.1,107.6-0.1,215.1,0,322.7c0,2-0.5,2.3-2.3,2.3C311.4,333,241,333,170.6,333z"
		/>
</g>
</svg>
