<?xml version="1.0" encoding="utf-8"?>
<!-- Generator: Adobe Illustrator 22.0.1, SVG Export Plug-In . SVG Version: 6.00 Build 0)  -->
<svg version="1.1" id="圖層_1" xmlns="http://www.w3.org/2000/svg" xmlns:xlink="http://www.w3.org/1999/xlink" x="0px" y="0px"
	 viewBox="0 0 381.6 336" style="enable-background:new 0 0 381.6 336;" xml:space="preserve">
<style type="text/css">
	.st0{fill:#FEFEFE;}
	.st1{fill:#060707;}
	.st2{fill:#7C7C7C;}
	.st3{fill:#0C0C0C;}
</style>
<g>
	<path class="st0" d="M192.2,342.2c-78.9,0-157.7,0-236.6,0.1c-2.7,0-3.5-0.4-3.5-3.4c0.1-114.6,0.1-229.2,0-343.8
		c0-2.8,0.7-3.2,3.3-3.2C113.3-8,271.1-8,429-8.1c2.5,0,3.3,0.3,3.3,3.2c-0.1,114.7-0.1,229.4,0,344.2c0,2.7-0.6,3-3.1,3
		C350.2,342.2,271.2,342.2,192.2,342.2z M36.8,224.8c-0.4,2.3-1.8,4.1-2.8,6.1c-2.4,4.9-1.4,8.8,3,12c6.3,4.6,12.7,4.7,18.9-0.1
		c5.1-4,10.1-8.1,15.6-11.6c1.9-1.2,3.1-1.1,4.5,0.2c3.1,2.7,6.2,5.5,9.3,8.1c9.8,8.3,21.2,12.2,33.9,12.7
		c5.2,0.2,10.5-0.6,15.7-0.8c5.4-0.2,10.8-0.3,15.7,2.5c4.7,2.7,5.9,7.1,3.1,11.7c-1.7,2.8-4.1,5-6.7,7c-5.8,4.6-12.6,7.5-18.6,11.8
		c-9.7,7.1-9.9,17.7-0.7,25.4c5.1,4.2,11,6.8,17.3,8.2c4.4,1,8.2,2.8,11.5,5.9c2,1.9,4.2,3.6,6.4,5.1c2.6,1.9,8.5,2.5,10,0.9
		c2.7-2.9,1.8-6.2,0.4-9.4c-1.9-4.4-4.5-8.3-7.5-12c-2.2-2.8-5-3.9-8.5-3.5c-2.4,0.2-4.8,0.5-7.1,0.2c-4.3-0.5-5.1-2-3.8-6.1
		c0.9-2.9,2.9-5,5.5-6.3c7.5-3.8,15.1-7.3,23.8-4.8c3.7,1,7.4,0.9,11.2,0.7c2.9-0.2,5.2,0.9,6.6,3.3c5,8.9,13.1,13.7,22.3,17
		c7.9,2.8,15.6,5.9,22.3,11.1c1.9,1.4,4.1,2.3,6.4,3c3.7,1,8.2-0.5,9.4-3.6c1.2-3.2-1.3-5.4-3.4-7.1c-3-2.6-6.2-5.1-8.6-8.3
		c-3.3-4.3-7.5-5.6-12.6-4.5c-2.2,0.4-4.3,0.4-6.2-0.7c-7.1-4-11.6-10.1-10.4-18.6c0.4-3.2,1.4-6.3,2.4-9.4c2-5.6,4.4-11.1,5.4-16.9
		c0.5-3,1.8-3.2,4-1.8c9.7,6.2,20.1,10.6,30.9,14.6c12,4.5,24.1,9,36.9,9.9c15.9,1.1,30.3-4.1,43.2-13.4c1.9-1.4,3.7-2.2,6.1-2.3
		c2.6,0,5.3-0.2,7.4-2c3.7-3.2,7.9-5,12.6-6.2c4.6-1.2,7.2-4.2,7.7-9.3c0.4-4-0.2-8.2,1.7-12.2c8.4-18.1,11-37,8.7-56.8
		c-2.4-20.4-12.5-35.4-31.3-43.8c-9.5-4.3-19.2-8.2-28.4-13c-2.2-1.2-4.6-1.9-7.1-2.1c-14.5-0.6-28.6,1.1-41.8,7.7
		c-2.7,1.3-3.3,0.5-3.5-1.9c-0.5-4.2-0.6-8.5-1.4-12.6c-4.2-20.7-14.4-38.2-29.6-52.4c-13.3-12.4-27.2-24.3-42.4-34.4
		C176.8,10.7,158,3.5,136.8,4.9c-11.8,0.8-23.5,2.8-35.1,4.8c-19.6,3.4-36.3,12.4-48.7,28c-15.8,19.8-26.7,42-29.6,67.6
		c-2,17-0.4,33.5,8,48.9c3.6,6.5,7.4,12.9,11.6,19c2.7,3.8,2.4,4.7-1.8,6.2c-9.7,3.3-18.5,8.4-27.4,13.3c-1.4,0.8-2.7,1.7-3.8,2.9
		c-5.1,5.2-4.5,10.1,2,12.5c1,0.4,2,1,3,1.5c6.3,3.4,7.3,3.2,11.8-2.4c3.8-4.8,8.7-7.6,15.2-7.6c-0.7,3.1-3.3,4-5.3,5.3
		c-3.3,2.3-6.8,4.2-9.3,7.4c-3.7,4.7-2.3,9.1,3.4,10.9C32.7,223.6,34.7,224.2,36.8,224.8z"/>
	<path class="st1" d="M36.8,224.8c-2.1-0.6-4.1-1.1-6.2-1.8c-5.7-1.7-7.1-6.2-3.4-10.9c2.5-3.2,6-5.2,9.3-7.4c2-1.3,4.5-2.2,5.3-5.3
		c-6.5,0.1-11.3,2.9-15.2,7.6c-4.5,5.6-5.5,5.9-11.8,2.4c-1-0.5-1.9-1.2-3-1.5c-6.5-2.4-7.1-7.3-2-12.5c1.1-1.1,2.5-2.1,3.8-2.9
		c8.9-4.9,17.8-9.9,27.4-13.3c4.2-1.5,4.5-2.3,1.8-6.2c-4.3-6.1-8.1-12.5-11.6-19c-8.5-15.4-10-31.8-8-48.9
		c2.9-25.5,13.8-47.8,29.6-67.6c12.4-15.6,29.2-24.6,48.7-28c11.6-2,23.4-4,35.1-4.8c21.1-1.4,40,5.8,57.4,17.3
		c15.2,10.1,29.1,22,42.4,34.4c15.3,14.2,25.5,31.7,29.6,52.4c0.8,4.1,0.9,8.4,1.4,12.6c0.3,2.3,0.8,3.2,3.5,1.9
		c13.1-6.6,27.2-8.3,41.8-7.7c2.5,0.1,4.9,0.9,7.1,2.1c9.3,4.8,18.9,8.7,28.4,13c18.8,8.5,28.9,23.5,31.3,43.8
		c2.4,19.7-0.3,38.7-8.7,56.8c-1.8,3.9-1.3,8.1-1.7,12.2c-0.5,5.1-3.1,8.1-7.7,9.3c-4.6,1.3-8.9,3-12.6,6.2c-2.1,1.8-4.8,2-7.4,2
		c-2.4,0-4.3,0.9-6.1,2.3c-12.9,9.3-27.3,14.5-43.2,13.4c-12.8-0.9-24.9-5.4-36.9-9.9c-10.7-4-21.2-8.5-30.9-14.6
		c-2.2-1.4-3.5-1.2-4,1.8c-1,5.9-3.4,11.3-5.4,16.9c-1.1,3.1-2,6.2-2.4,9.4c-1.2,8.6,3.4,14.6,10.4,18.6c1.9,1.1,4,1.2,6.2,0.7
		c5.1-1,9.3,0.3,12.6,4.5c2.4,3.2,5.6,5.7,8.6,8.3c2.1,1.8,4.6,4,3.4,7.1c-1.2,3.1-5.7,4.6-9.4,3.6c-2.3-0.6-4.5-1.5-6.4-3
		c-6.7-5.1-14.4-8.3-22.3-11.1c-9.2-3.3-17.3-8.1-22.3-17c-1.4-2.5-3.7-3.5-6.6-3.3c-3.7,0.2-7.5,0.4-11.2-0.7
		c-8.8-2.5-16.3,1.1-23.8,4.8c-2.7,1.3-4.6,3.4-5.5,6.3c-1.3,4.1-0.5,5.5,3.8,6.1c2.3,0.3,4.7,0,7.1-0.2c3.5-0.3,6.3,0.8,8.5,3.5
		c3,3.7,5.6,7.6,7.5,12c1.4,3.2,2.3,6.5-0.4,9.4c-1.5,1.6-7.3,1-10-0.9c-2.2-1.6-4.4-3.3-6.4-5.1c-3.3-3.1-7.1-4.9-11.5-5.9
		c-6.4-1.5-12.3-4-17.3-8.2c-9.3-7.7-9-18.3,0.7-25.4c5.9-4.3,12.8-7.2,18.6-11.8c2.5-2.1,5-4.2,6.7-7c2.8-4.7,1.6-9-3.1-11.7
		c-4.9-2.8-10.3-2.7-15.7-2.5c-5.2,0.2-10.5,1-15.7,0.8c-12.6-0.5-24.1-4.3-33.9-12.7c-3.1-2.7-6.2-5.4-9.3-8.1
		c-1.4-1.2-2.6-1.4-4.5-0.2c-5.5,3.5-10.5,7.6-15.6,11.6c-6.1,4.8-12.6,4.8-18.9,0.1c-4.4-3.2-5.3-7.1-3-12
		C35,228.8,36.4,227,36.8,224.8z M244.8,317.4c0.1,0.1,0.2,0.3,0.2,0.4c0-0.1,0-0.2,0-0.2C244.9,317.6,244.8,317.5,244.8,317.4
		c-0.5-2.2-1.9-3.6-3.8-4.8c-1.4-0.8-2.8-1.7-3.8-2.9c-2.7-3.2-6.2-4.3-10.2-4.8c-9.9-1.3-16.6-6.7-20-16.1c-1.7-4.7-1.6-4.8-6-2.9
		c-1.1,0.5-2.2,0.8-3.4,1.3c2.7,4.9,5.8,9.3,10.3,11.9c7,4,13.8,8.4,21.5,11.1c4.4,1.6,8.6,3.3,12.4,5.9
		C242.6,316.8,243.5,317.7,244.8,317.4z M120.8,179.7c0,1.3,0.9,1.6,1.6,2c7.4,3.6,15,6.5,23.2,6.7c11.9,0.2,23.6,2,35.4,3.4
		c20.2,2.4,37.5-3.5,50.8-19.4c4.7-5.7,7.7-12.5,10.1-19.6c2.9-8.6,7.4-16.9,7.9-26.1c1.2-23.4-5.4-44-23.5-59.8
		c-10.9-9.5-22.4-18.4-33.3-27.9c-13.6-11.8-29.6-16.9-47.2-16.9c-10.3,0-20.7,0.8-31,1.5c-7.8,0.6-15.1,3.1-21.9,7
		c-16.2,9.3-29.1,22.2-40.4,36.9c-12.1,15.8-19,33.4-18.9,53.4c0.1,15.2,5.7,29.2,11.5,43c2.6,6.2,7.4,10.4,12.9,13.6
		c2.4,1.4,6,3.1,8.9,1.7c5.4-2.6,10.8-5.3,17.2-7.2c-13.6-4.5-21.9-13.5-26.7-25.9c-1.3-3.3-2-6.8-1.2-10.3
		c1.7-7.3,4.9-14.1,8.2-20.8c2.5-5,6.6-6.9,12.2-7c10.7-0.2,21.1,1.8,31.6,3.1c21.1,2.6,41,8.6,58.9,20.4c1.8,1.2,3.6,2.4,4.9,4
		c3.9,4.6,5.7,9.6,2.9,15.5c-1.3,2.8-2.5,5.7-3.7,8.6c-4.1,9.9-11.3,16.2-21.8,18.8c-6.1,1.5-12.3,2-18.6,1.3
		C127.5,179.4,124.1,179.7,120.8,179.7z M261.4,259.2c5.9,0.6,11.3,1.4,16.7,1.7c6.6,0.3,7.7-0.8,7.6-7.4c-0.1-8.5,2-16.3,6.2-23.6
		c3.7-6.4,8.8-10.7,16.6-12.1c7.8-1.3,14,1.2,19.8,5.6c5.7,4.3,11.9,8.7,9.3,18.1c2.5-1.7,4.7-2.8,6.4-4.4c5.2-4.9,12-8.8,12.2-17.3
		c0-1.3,0.6-2.7,1.2-3.9c6-11.5,5.6-23.6,3.4-35.8c-1-5.6-1.1-5.6-7-5.9c-0.9,0-1.7-0.1-2.6-0.3c-9.8-2.2-16.7-10.8-16.3-20.9
		c0.2-4-0.9-7.1-4.3-9.2c-4.5-2.9-9-5.7-14.1-8.9c0.6,9.8-4.4,15.7-12,19.5c-4.7,2.4-9.4,5.5-15.1,4.5c-8.6-1.5-15.7-9.1-17.6-18.8
		c-0.4-1.8-0.4-3.7-3-5.1c-0.1,11.9-4.8,21.8-9.8,31.7c-2.9,5.8-3,5.8,3.6,6.6c12.1,1.5,19.4,11.7,16.8,23.6
		c-2,9.1-10.4,15.9-18.7,15c-4.6-0.5-9.1-1.6-13.5-3.1c-6.4-2.3-7.3-8.1-8-13.7c-0.5-4.4,2.1-7.6,5.9-9.6c2.2-1.2,4.5-2.1,7-2.6
		c5.5-1,11.1,2.1,12.7,7.4c0.7,2.4,0.6,4.7-1.2,6.7c-1.7,1.9-3.8,1.6-5.9,1.1c-1.1-0.3-2.1-0.9-3.2-1c-3.5-0.2-2.8-2.7-2.9-4.9
		c-0.1-3,2.1-2.1,3.6-2.3c1.3-0.2,2.7-0.1,4.1-0.9c-2.3-2-5-2.2-7.8-1.7c-3.5,0.6-7,4.1-7.1,6.9c-0.1,2.7,2.4,5.8,5.6,6.1
		c4.3,0.4,8.7,1.3,13.1,0.9c5.2-0.5,7.9-4,9.6-8.4c1.5-4,0.8-7.5-2.2-10.7c-5.5-5.7-16.1-6.3-23.1-1.5c-8.2,5.6-16.4,11.4-25.9,14.7
		c-2.9,1-3.4,2.9-2,5.2c2.7,4.6,1.2,8.7-1.4,12.6c-3.3,4.9-8,7.7-13.8,8.6c1.4,1.6,2.7,3,4,4.6c3.6,4.3,7,8.8,10.9,12.8
		c5.8,6,5.9,5.9,8.3-2c3.5-11.5,16.4-18.4,25.4-13.2c7.6,4.4,13.3,10.7,14.2,19.9C267.5,249.3,266.1,254.5,261.4,259.2z M100.6,170
		c2.6,0.3,5,0.2,7.3,0.7c8.7,1.9,17.3,1.9,26,0.5c8.2-1.3,15.8-3.5,21.2-10.6c3-3.9,5.2-8.2,6.7-12.8c2-6.1,1.6-7.1-3.8-10.3
		c-15.3-9-32.1-13.4-49.2-17.3c-11-2.5-22.4-2.4-33.2-5.7c-1-0.3-1.3,0.2-1.8,0.9c-2.4,3.5-5,6.9-7.1,10.5
		c-8.9,14.9-6.8,25.1,7.1,35.4c5.5,4.1,12.1,5.8,18.2,8.5c1.5,0.7,1.6-0.4,1.9-1.4c1.1-2.9,2.2-5.8,3.6-8.6c0.7-1.5,1-4.1,3.8-2.5
		c2.3,1.4,5.3,2.6,3.1,6.2C103.3,165.7,102,167.8,100.6,170z M82.2,228.6c12,9.6,24.4,17.9,40.9,16.7c12.9-1,26-2.6,37.7,5.5
		c1.9,1.3,4.4,2,6.8,1.1c12.1-4.7,24.4-8.7,37.1-11.8c2.8-0.7,3-2,1.1-4.2c-3.1-3.5-6-7.4-9.2-10.8c-9.2-10.1-19.1-19.4-31.6-25.5
		c-7.5-3.7-7.4-3.5-12.5,2.9c-7,8.8-15.9,16-22.8,25.1c-4.5,6-11.8,7.9-19.7,6.3c-4.8-1-9.5-2.2-14.1-3.5
		C91.5,229,87,227.8,82.2,228.6z M68.9,205.2c0.5,1,1,1.7,1.2,2.5c1.4,7,6.4,9.3,12.7,9.9c8.2,0.8,16.3,2.1,24.4,3.4
		c3.6,0.6,7.4,1.5,11.1,0.5c7-2,12.1-7,18.5-12c-9.3,0.4-16.2-2.9-22.5-7.8c-6.4-4.9-12.8-9.9-19.3-14.8c-4.1,3.6-7.2,8-11.8,10.9
		C78.7,200.8,73.7,202.7,68.9,205.2z M179.7,279.4c0.5,0,1,0,1.5,0c5.9,0.7,11.3-1.5,16.9-2.5c5.8-1.1,8.3-6.5,13.2-8.7
		c2.2-1,4.1-11.2,3.2-13.8c-0.5-1.4-1.2-1.3-2.5-1c-6,1.5-11.5,4.1-17.1,6.4c-10.9,4.4-22.3,4.7-33.8,2.9c-1.7-0.3-2.3-0.2-2.4,1.5
		c-0.1,4.2-1.9,7.7-4.8,10.6c-2.1,2.1-1.4,3,1.2,3.4C163.3,279.6,171.5,279.7,179.7,279.4z M300.1,240.7c-0.1-7.5,3.3-10.5,9-11.7
		c4.3-0.9,8.2,0.7,11.5,3.4c5.2,4.2,4.8,8.5-1,11.8c-2.5,1.4-8.3-0.2-9-3.1c-0.7-2.7,3.1-1.3,4.1-2.9c0.2-0.3,0.6-0.5,1-0.5
		c2.3-0.5,1.7-1.6,0.6-2.8c-1.6-1.8-3.5-2.8-6-2.3c-3,0.7-4.6,2.8-5.4,5.7c-1.3,5.2,3,13.3,8,15.2c0.6,0.2,1.1,0.3,1.8,0
		c4.4-1.8,8.9-3.2,13.1-5.4c7.4-3.9,7.8-14.8,1-19.6c-3.8-2.7-8-4.9-12.5-5.7c-5.3-0.9-10.7-0.1-14.3,4.3c-5.4,6.5-9,14.1-10.5,22.5
		c-0.6,3.3-1,6.9,2.3,9.3c3.2,2.3,6.2,0.6,9.2-0.8c0.4-0.2,0.9-0.5,1.4-0.6c2.6-0.9,2.6-2.1,0.8-4
		C301.8,249.8,300,245.6,300.1,240.7z M152.7,285c-2.7-1.3-4.6-3.4-7.5-2.2c-3.1,1.3-6.3,2.5-9,4.5c-4.7,3.6-8.8,7.9-7.6,14.4
		c1.1,6.3,6.5,8.4,11.8,10.2c0.1,0,0.2,0.1,0.4,0.1c6.6,1.2,12.5,4,17.8,8.1c1.9,1.4,3.9,2.6,5.9,3.9c0.5,0.3,0.8,1.1,1.5,0.6
		c0.7-0.6,0.5-1.3-0.1-1.9c-2-2.1-3.1-4.8-4.5-7.3c-1.6-2.7-3.8-4.4-7.2-4.6c-2.7-0.2-5.4-1-7.8-2.4c-6-3.6-7.1-10.2-2.7-15.6
		C146,289.6,149,287.4,152.7,285z M235.8,249.8c0-2.7-0.2-4.8,0-6.9c0.5-4.2,3.3-7.1,7.1-7.7c4.1-0.7,7.7,1.1,9.7,4.7
		c0.9,1.7,1.6,3.4,0.3,5.2c-1,1.3-2.3,1.4-3.7,0.8c-1.9-0.8-3.1-1.9-2.6-4.3c0.4-1.7-0.9-2.9-2.6-2.9c-1.4,0-3,0.1-3.5,2.1
		c-0.8,3.4,1,7.5,4,9.4c3.3,2.1,7.1,2.3,10.8,2.4c3.3,0.1,5.7-2.8,5.8-6.1c0.3-7.8-5.2-16.2-12.5-18.7c-2.1-0.7-4.4-1.9-6.5-0.9
		c-7,3.4-11.6,9.4-10.2,18C232.3,247.1,233.2,248.7,235.8,249.8z M61,199.2c10.7-2.1,20.5-7.2,27.2-17.2c0.8-1.2,1.3-2.7,1.3-4.2
		c0-2.1-0.3-3.2-2.7-1.9c-3.6,1.8-7.5,2.6-11.2,4.1c-7.2,2.8-12.8,8.2-18.1,13.6c-1,1-2.1,2.9-1.5,4.4
		C56.6,199.4,58.6,198.9,61,199.2z M28.9,217.5c3.7,1.7,6.3,3.9,10.5,2.7c3.3-0.9,6.1-3.3,9.9-2.9c4.2,0.4,8.4,0.1,12.6-0.7
		c1-0.2,2.6,0.1,2.7-1.4c0.1-2.6-2.1-4.5-3.1-6.7c-0.7-1.4-2.3-0.3-3.4,0c-3.4,0.9-6.5,0.5-8.9-2.2c-1.6-1.9-2.9-1.3-4.8-0.3
		C38.8,209,35.1,214.4,28.9,217.5z M278.7,134c1.7,2.5,1.7,2.5,1.2,4.8c-1.1,5.1,0.8,8.4,5.5,10.5c7.2,3.1,13.6,0.4,19-4.1
		c2.5-2.1,4.3-4.9,4.7-8.3c0.3-3-1.9-5.9-4.9-6c-3.3,0-2,2.8-2.2,4.5c-0.6,4.7-2.9,7.5-7,7.9c-4.3,0.5-9.2-3-10.4-7
		c-0.5-1.6,0.8-4.1-1-4.6C282.3,131.3,280.5,133.1,278.7,134z M65.2,229.5c-6.2,0.5-11.4-1-15.8-5.3c-0.9-0.9-2-0.7-3,0.2
		c-3,2.9-6.2,5.8-8.4,9.5c-0.6,1-1.4,2.1-0.6,3.5c1,1.9,7.9,4.3,9.7,3C53,236.5,59.2,233.3,65.2,229.5z M127.9,200.8
		c-4.3-7.4-17.6-18.9-26.2-22.9c-1.4-0.6-3.2-2.3-4.3-1c-1.1,1.2-0.3,3.3,0.4,4.9c0.3,0.6,0.5,1.1,0.9,1.6
		C106.1,192.7,115.8,198,127.9,200.8z M165.9,257.4c15.7,4.1,28.9-4.6,43.2-8.1c1.3-0.3,2.8-1.1,2.6-2.8c-0.2-2-2.2-1.8-3.5-2.1
		c-0.6-0.2-1.4,0.2-2.2,0.4C192.2,247.7,179.3,253.4,165.9,257.4z M27.8,192.1c6.5,1.2,13,2.1,19.4,3.6c0.7,0.2,1.3-0.1,1.5-0.8
		c1.5-4.9,5.7-7.4,9-10.6c0.7-0.7,2.1-1.5,1.3-2.7c-0.5-0.9-1.8-0.7-2.8-0.5C46.2,182.9,36.5,185.8,27.8,192.1z M341.2,149.7
		c-2.5,8.6,0.9,15.7,9.3,19.2c2.3,0.9,6,2.6,6.9,1c1.2-2.2-1.2-5-3.3-6.8c-2.1-1.8-4.2-3.5-5.2-6.2
		C347.4,153.2,344.5,151.2,341.2,149.7z M175.3,198c3,2.3,6.1,4.7,9.2,6.9c6.8,4.9,13.9,2.5,16.9-5.6
		C192.6,200.9,184.1,198.7,175.3,198z M194.4,211.7c2.6,3.7,4.5,4.6,7.5,3.8c5.3-1.4,10.9-9,10.7-14.4c-0.1-1.3-0.2-2.8-1.4-3.3
		c-1.7-0.7-1.9,1.2-2.5,2.1C205.2,205.2,202.2,211.1,194.4,211.7z M151.8,193.1c-6.5-0.2-12.1,0-18.4-2.2c3,4.1,6.3,6.5,8.3,9.9
		c0.5,0.9,1.2,0.6,1.8,0C145.9,198.6,148.4,196.2,151.8,193.1z M293.6,129.2c-4.5,0-5.2,0.8-5.1,5.6c0,2.2,0.7,4,3.3,4.1
		c2.8,0.1,5.5-3.8,5.4-7.7C297.2,127.9,294.7,129.8,293.6,129.2z M73.2,223.5c-3.6-5.2-9.6-1.3-13.5-4.4c-0.8-0.7-2.7-1-3.1,1.2
		c-0.4,2.1,1.1,2.2,2.3,2.6C63.5,224.3,68.1,223.9,73.2,223.5z M18.8,196.8c-1.6,0.1-6,4.1-5.7,5.2c0.6,2.5,2.6,3.4,4.8,3.1
		c1.8-0.2,4.5-1.2,4.3-2.9C22,200.3,20,198.5,18.8,196.8z"/>
	<path class="st2" d="M120.8,179.7c3.3,0,6.6-0.3,9.9,0.1c6.3,0.7,12.4,0.2,18.6-1.3c10.5-2.6,17.7-8.9,21.8-18.8
		c1.2-2.9,2.3-5.8,3.7-8.6c2.8-5.9,1-10.9-2.9-15.5c-1.4-1.6-3.2-2.8-4.9-4c-17.9-11.9-37.7-17.9-58.9-20.4
		c-10.5-1.3-20.9-3.3-31.6-3.1c-5.6,0.1-9.7,2-12.2,7c-3.3,6.7-6.6,13.4-8.2,20.8c-0.8,3.5-0.1,7,1.2,10.3
		c4.9,12.4,13.1,21.3,26.7,25.9c-6.4,1.9-11.8,4.6-17.2,7.2c-2.9,1.4-6.5-0.3-8.9-1.7c-5.5-3.2-10.3-7.4-12.9-13.6
		c-5.7-13.8-11.4-27.8-11.5-43c-0.1-19.9,6.8-37.6,18.9-53.4c11.3-14.7,24.2-27.6,40.4-36.9c6.8-3.9,14.1-6.4,21.9-7
		c10.3-0.7,20.7-1.5,31-1.5c17.7,0,33.6,5.1,47.2,16.9c10.9,9.5,22.4,18.4,33.3,27.9c18.1,15.8,24.8,36.4,23.5,59.8
		c-0.5,9.2-5,17.5-7.9,26.1c-2.3,7-5.3,13.8-10.1,19.6c-13.2,15.9-30.5,21.8-50.8,19.4c-11.8-1.4-23.5-3.2-35.4-3.4
		c-8.2-0.2-15.9-3.1-23.2-6.7C121.7,181.3,120.8,181,120.8,179.7z"/>
	<path class="st2" d="M261.4,259.2c4.7-4.7,6.1-9.9,5.5-15.5c-1-9.2-6.6-15.5-14.2-19.9c-9-5.2-21.9,1.7-25.4,13.2
		c-2.4,7.8-2.5,8-8.3,2c-3.9-4-7.3-8.5-10.9-12.8c-1.3-1.5-2.6-3-4-4.6c5.7-0.9,10.5-3.6,13.8-8.6c2.6-3.9,4.1-8,1.4-12.6
		c-1.4-2.4-0.9-4.3,2-5.2c9.5-3.3,17.7-9.1,25.9-14.7c7-4.8,17.6-4.2,23.1,1.5c3,3.1,3.7,6.7,2.2,10.7c-1.7,4.4-4.4,7.9-9.6,8.4
		c-4.4,0.4-8.7-0.5-13.1-0.9c-3.2-0.3-5.7-3.3-5.6-6.1c0.1-2.8,3.6-6.3,7.1-6.9c2.8-0.5,5.4-0.3,7.8,1.7c-1.3,0.8-2.7,0.7-4.1,0.9
		c-1.5,0.2-3.8-0.7-3.6,2.3c0.1,2.2-0.6,4.7,2.9,4.9c1.1,0.1,2.1,0.7,3.2,1c2.1,0.5,4.2,0.8,5.9-1.1c1.8-2,2-4.3,1.2-6.7
		c-1.6-5.2-7.2-8.4-12.7-7.4c-2.5,0.5-4.8,1.4-7,2.6c-3.8,2-6.4,5.2-5.9,9.6c0.6,5.6,1.5,11.4,8,13.7c4.4,1.6,8.9,2.6,13.5,3.1
		c8.3,1,16.7-5.9,18.7-15c2.6-11.9-4.7-22.1-16.8-23.6c-6.6-0.8-6.6-0.8-3.6-6.6c5-9.9,9.8-19.9,9.8-31.7c2.6,1.4,2.7,3.3,3,5.1
		c1.9,9.7,9,17.2,17.6,18.8c5.8,1,10.4-2.1,15.1-4.5c7.6-3.8,12.6-9.7,12-19.5c5.1,3.2,9.6,6.1,14.1,8.9c3.4,2.2,4.4,5.2,4.3,9.2
		c-0.4,10.1,6.5,18.7,16.3,20.9c0.8,0.2,1.7,0.3,2.6,0.3c6,0.2,6,0.2,7,5.9c2.3,12.3,2.7,24.3-3.4,35.8c-0.6,1.2-1.2,2.6-1.2,3.9
		c-0.2,8.5-7,12.4-12.2,17.3c-1.7,1.6-3.8,2.7-6.4,4.4c2.6-9.4-3.6-13.7-9.3-18.1c-5.8-4.4-12-6.9-19.8-5.6
		c-7.8,1.3-12.9,5.7-16.6,12.1c-4.2,7.3-6.3,15.1-6.2,23.6c0.1,6.6-1,7.7-7.6,7.4C272.7,260.7,267.3,259.8,261.4,259.2z
		 M333.7,208.2c8.6,0,14.6-5.8,13.6-13.6c-1.3-10-6.2-18.2-15.4-22.5c-12.9-6-21-4.8-27.5,10.7c-1.8,4.2-2.5,8.9-3.8,13.3
		c-0.6,1.9,0.3,2.5,1.9,2.8c4.5,0.9,6.7-1,6.7-6.4c0-4.1,0.5-8,2.1-11.7c2.9-6.5,8.4-8.9,15-6.6c6,2.1,10.2,6.1,13.2,11.6
		c1.9,3.5,2.4,7.2,0.9,11.2c-1.4,3.8-4.8,2.6-7.3,3.3c-5.8,1.6-12.3-5.1-10.9-11c0.7-2.9,2.2-3.4,4.4-1.3c1.6,1.6,2.9,3.4,4.5,4.9
		c0.8,0.7,1.9,1.4,3,0.4c0.9-0.8,0.6-1.8,0.4-2.8c-0.9-3.8-4.8-7.4-8.6-8c-4.5-0.7-8.3,2.1-8.9,6.5
		C315.4,199.8,322.7,208.2,333.7,208.2z"/>
	<path class="st0" d="M100.6,170c1.4-2.2,2.7-4.3,3.9-6.4c2.2-3.6-0.8-4.8-3.1-6.2c-2.8-1.7-3.1,1-3.8,2.5c-1.3,2.8-2.4,5.7-3.6,8.6
		c-0.4,0.9-0.4,2-1.9,1.4c-6.2-2.7-12.7-4.4-18.2-8.5c-13.9-10.4-16-20.6-7.1-35.4c2.2-3.6,4.8-7,7.1-10.5c0.4-0.6,0.8-1.2,1.8-0.9
		c10.8,3.3,22.2,3.2,33.2,5.7c17.1,3.9,33.9,8.3,49.2,17.3c5.5,3.2,5.8,4.2,3.8,10.3c-1.5,4.7-3.8,8.9-6.7,12.8
		c-5.3,7-13,9.3-21.2,10.6c-8.7,1.4-17.4,1.4-26-0.5C105.7,170.2,103.2,170.2,100.6,170z M128.4,154.2c0-3.2-2.1-5.4-5-5.3
		c-3.5,0.1-4.1,2.8-4.3,5.5c-0.2,3.1,1.9,5.4,4.4,5.4C126.3,159.7,128.4,157.2,128.4,154.2z M92.6,149.1c0.1-3.6-2.9-7.1-5.6-7
		c-2.7,0.1-3.4,2.2-3.5,4.4c-0.1,3,2.4,6.2,4.8,6.1C91,152.6,92.4,151.1,92.6,149.1z"/>
	<path class="st2" d="M82.2,228.6c4.9-0.8,9.3,0.5,13.8,1.7c4.7,1.3,9.4,2.5,14.1,3.5c7.8,1.6,15.2-0.4,19.7-6.3
		c6.9-9.1,15.7-16.2,22.8-25.1c5.1-6.4,5-6.6,12.5-2.9c12.4,6.1,22.3,15.4,31.6,25.5c3.2,3.5,6.1,7.3,9.2,10.8
		c1.9,2.2,1.6,3.5-1.1,4.2c-12.6,3.1-25,7.1-37.1,11.8c-2.4,0.9-5,0.2-6.8-1.1c-11.7-8.1-24.8-6.5-37.7-5.5
		C106.6,246.5,94.1,238.2,82.2,228.6z"/>
	<path class="st0" d="M68.9,205.2c4.8-2.5,9.8-4.4,14.4-7.2c4.6-2.9,7.8-7.4,11.8-10.9c6.4,4.9,12.8,9.9,19.3,14.8
		c6.3,4.8,13.3,8.1,22.5,7.8c-6.5,5-11.5,10.1-18.5,12c-3.7,1-7.5,0.1-11.1-0.5c-8.1-1.4-16.3-2.6-24.4-3.4
		c-6.4-0.6-11.3-2.9-12.7-9.9C70,207,69.4,206.2,68.9,205.2z M102.5,206.6c0.4-0.1,1.4,1,2,0c0.6-1,0.1-2.2-0.6-3.2
		c-1.6-2.1-3.6-2.9-6.2-1.8c-3.6,1.6-7.2,3.7-11,4.7c-2.1,0.6-3.2,0.7-2.7,3.1c0.5,2.4,2.2,2.9,4.3,2.4c2.2-0.4,4.1-1.7,6.1-2.7
		C96.8,207.8,99.2,206.6,102.5,206.6z"/>
	<path class="st2" d="M179.7,279.4c-8.2,0.2-16.5,0.1-24.6-1.2c-2.7-0.4-3.3-1.4-1.2-3.4c2.9-2.9,4.7-6.4,4.8-10.6
		c0-1.7,0.7-1.8,2.4-1.5c11.5,1.8,22.9,1.5,33.8-2.9c5.7-2.3,11.2-4.9,17.1-6.4c1.3-0.3,2-0.4,2.5,1c0.9,2.6-1,12.9-3.2,13.8
		c-4.9,2.2-7.5,7.6-13.2,8.7c-5.6,1-11,3.2-16.9,2.5C180.7,279.4,180.2,279.4,179.7,279.4z"/>
	<path class="st2" d="M300.1,240.7c-0.1,4.9,1.7,9.1,4.9,12.6c1.8,1.9,1.8,3.1-0.8,4c-0.5,0.2-0.9,0.4-1.4,0.6c-3,1.4-6,3-9.2,0.8
		c-3.3-2.4-2.9-6-2.3-9.3c1.4-8.4,5.1-15.9,10.5-22.5c3.7-4.4,9-5.3,14.3-4.3c4.6,0.8,8.7,3,12.5,5.7c6.8,4.8,6.4,15.7-1,19.6
		c-4.2,2.2-8.7,3.6-13.1,5.4c-0.6,0.3-1.2,0.2-1.8,0c-5-1.9-9.4-10.1-8-15.2c0.7-2.8,2.4-5,5.4-5.7c2.4-0.5,4.4,0.4,6,2.3
		c1.1,1.3,1.7,2.3-0.6,2.8c-0.4,0.1-0.8,0.3-1,0.5c-1,1.6-4.8,0.2-4.1,2.9c0.7,2.9,6.6,4.6,9,3.1c5.7-3.3,6.1-7.6,1-11.8
		c-3.3-2.7-7.2-4.3-11.5-3.4C303.4,230.2,299.9,233.2,300.1,240.7z"/>
	<path class="st2" d="M152.7,285c-3.8,2.4-6.7,4.6-9.1,7.6c-4.4,5.5-3.3,12,2.7,15.6c2.4,1.5,5,2.3,7.8,2.4c3.4,0.2,5.6,1.9,7.2,4.6
		c1.5,2.4,2.5,5.2,4.5,7.3c0.6,0.6,0.8,1.3,0.1,1.9c-0.7,0.6-1-0.3-1.5-0.6c-2-1.3-4.1-2.4-5.9-3.9c-5.3-4.1-11.2-6.9-17.8-8.1
		c-0.1,0-0.2-0.1-0.4-0.1c-5.3-1.8-10.7-3.9-11.8-10.2c-1.2-6.5,2.9-10.8,7.6-14.4c2.7-2.1,5.9-3.3,9-4.5
		C148.1,281.6,150,283.7,152.7,285z"/>
	<path class="st2" d="M235.8,249.8c-2.6-1-3.5-2.7-3.9-4.8c-1.5-8.7,3.1-14.7,10.2-18c2.1-1,4.5,0.1,6.5,0.9
		c7.3,2.6,12.8,10.9,12.5,18.7c-0.1,3.3-2.5,6.2-5.8,6.1c-3.7-0.1-7.5-0.4-10.8-2.4c-3-1.9-4.8-5.9-4-9.4c0.5-2,2.1-2.1,3.5-2.1
		c1.8,0,3,1.2,2.6,2.9c-0.5,2.4,0.7,3.5,2.6,4.3c1.4,0.6,2.7,0.5,3.7-0.8c1.3-1.8,0.7-3.5-0.3-5.2c-2-3.7-5.7-5.5-9.7-4.7
		c-3.8,0.7-6.5,3.5-7.1,7.7C235.6,244.9,235.8,247.1,235.8,249.8z"/>
	<path class="st2" d="M61,199.2c-2.4-0.3-4.4,0.2-5-1.3c-0.7-1.5,0.5-3.4,1.5-4.4c5.3-5.5,10.9-10.8,18.1-13.6
		c3.7-1.4,7.7-2.3,11.2-4.1c2.4-1.2,2.7-0.1,2.7,1.9c0,1.6-0.4,3-1.3,4.2C81.5,192,71.7,197.1,61,199.2z"/>
	<path class="st2" d="M28.9,217.5c6.2-3.1,9.9-8.5,15.5-11.5c1.9-1,3.2-1.6,4.8,0.3c2.4,2.8,5.5,3.2,8.9,2.2c1.1-0.3,2.7-1.4,3.4,0
		c1.1,2.2,3.2,4,3.1,6.7c0,1.5-1.7,1.2-2.7,1.4c-4.2,0.8-8.4,1.1-12.6,0.7c-3.8-0.3-6.6,2-9.9,2.9C35.2,221.4,32.6,219.2,28.9,217.5
		z"/>
	<path class="st2" d="M278.7,134c1.8-0.9,3.6-2.7,4.8-2.3c1.9,0.5,0.6,3,1,4.6c1.2,4,6.2,7.5,10.4,7c4.1-0.4,6.4-3.2,7-7.9
		c0.2-1.6-1.1-4.5,2.2-4.5c3,0,5.3,3,4.9,6c-0.4,3.4-2.3,6.2-4.7,8.3c-5.3,4.5-11.7,7.1-19,4.1c-4.7-2-6.5-5.4-5.5-10.5
		C280.4,136.5,280.4,136.5,278.7,134z"/>
	<path class="st2" d="M65.2,229.5c-6.1,3.8-12.2,7-18,10.8c-1.8,1.2-8.7-1.1-9.7-3c-0.7-1.4,0-2.4,0.6-3.5c2.2-3.7,5.3-6.5,8.4-9.5
		c1-0.9,2.1-1.1,3-0.2C53.8,228.5,59,230,65.2,229.5z"/>
	<path class="st2" d="M127.9,200.8c-12.1-2.8-21.8-8.1-29.2-17.3c-0.4-0.5-0.7-1.1-0.9-1.6c-0.7-1.6-1.5-3.8-0.4-4.9
		c1.1-1.2,2.9,0.4,4.3,1C110.2,181.9,123.6,193.3,127.9,200.8z"/>
	<path class="st2" d="M244.8,317.4c-1.3,0.2-2.1-0.6-3-1.2c-3.8-2.7-8-4.4-12.4-5.9c-7.6-2.7-14.5-7.1-21.5-11.1
		c-4.6-2.6-7.6-7.1-10.3-11.9c1.2-0.4,2.3-0.8,3.4-1.3c4.4-1.9,4.3-1.9,6,2.9c3.4,9.4,10.1,14.9,20,16.1c4,0.5,7.5,1.6,10.2,4.8
		c1,1.2,2.4,2.1,3.8,2.9C242.9,313.8,244.3,315.2,244.8,317.4L244.8,317.4z"/>
	<path class="st2" d="M165.9,257.4c13.4-3.9,26.3-9.7,40.1-12.6c0.7-0.2,1.5-0.6,2.2-0.4c1.3,0.4,3.3,0.1,3.5,2.1
		c0.2,1.7-1.3,2.5-2.6,2.8C194.8,252.8,181.6,261.5,165.9,257.4z"/>
	<path class="st2" d="M27.8,192.1c8.7-6.3,18.4-9.2,28.5-11.1c1-0.2,2.3-0.3,2.8,0.5c0.8,1.3-0.6,2-1.3,2.7c-3.4,3.2-7.6,5.8-9,10.6
		c-0.2,0.7-0.8,0.9-1.5,0.8C40.8,194.2,34.3,193.3,27.8,192.1z"/>
	<path class="st2" d="M341.2,149.7c3.4,1.5,6.3,3.5,7.7,7.1c1.1,2.7,3.1,4.4,5.2,6.2c2.1,1.8,4.5,4.6,3.3,6.8
		c-0.9,1.6-4.6-0.1-6.9-1C342.1,165.3,338.7,158.3,341.2,149.7z"/>
	<path class="st2" d="M175.3,198c8.8,0.7,17.3,3,26.1,1.3c-3,8.1-10.1,10.5-16.9,5.6C181.4,202.7,178.4,200.3,175.3,198z"/>
	<path class="st2" d="M194.4,211.7c7.8-0.5,10.8-6.4,14.3-11.7c0.6-0.9,0.8-2.8,2.5-2.1c1.2,0.5,1.3,2,1.4,3.3
		c0.3,5.5-5.3,13.1-10.7,14.4C199,216.3,197,215.4,194.4,211.7z"/>
	<path class="st2" d="M151.8,193.1c-3.3,3.1-5.8,5.4-8.3,7.8c-0.6,0.6-1.3,0.9-1.8,0c-2-3.5-5.3-5.9-8.3-9.9
		C139.6,193.2,145.3,193,151.8,193.1z"/>
	<path class="st2" d="M293.6,129.2c1.1,0.6,3.6-1.3,3.6,1.9c0,3.9-2.6,7.8-5.4,7.7c-2.6-0.1-3.3-1.9-3.3-4.1
		C288.4,130,289.1,129.2,293.6,129.2z"/>
	<path class="st0" d="M73.2,223.5c-5.1,0.5-9.7,0.8-14.3-0.7c-1.2-0.4-2.8-0.5-2.3-2.6c0.5-2.2,2.3-1.8,3.1-1.2
		C63.6,222.1,69.5,218.3,73.2,223.5z"/>
	<path class="st0" d="M18.8,196.8c1.2,1.7,3.2,3.5,3.4,5.5c0.2,1.7-2.5,2.7-4.3,2.9c-2.2,0.3-4.2-0.6-4.8-3.1
		C12.8,200.9,17.2,196.9,18.8,196.8z"/>
	<path class="st2" d="M244.7,317.5c0.1,0.1,0.2,0.1,0.3,0.2c0,0,0,0.1,0,0.2C244.9,317.7,244.9,317.6,244.7,317.5
		C244.8,317.4,244.7,317.5,244.7,317.5z"/>
	<path class="st1" d="M333.7,208.2c-11,0-18.2-8.4-16.7-19.2c0.6-4.4,4.5-7.2,8.9-6.5c3.8,0.6,7.7,4.2,8.6,8c0.2,1,0.5,2-0.4,2.8
		c-1.1,0.9-2.3,0.3-3-0.4c-1.6-1.5-3-3.4-4.5-4.9c-2.1-2.1-3.7-1.6-4.4,1.3c-1.4,5.9,5.1,12.7,10.9,11c2.5-0.7,5.9,0.5,7.3-3.3
		c1.5-4,1-7.6-0.9-11.2c-2.9-5.5-7.2-9.5-13.2-11.6c-6.7-2.3-12.2,0.1-15,6.6c-1.7,3.7-2.1,7.6-2.1,11.7c0,5.4-2.2,7.3-6.7,6.4
		c-1.6-0.3-2.5-0.8-1.9-2.8c1.3-4.4,2-9.1,3.8-13.3c6.6-15.5,14.7-16.7,27.5-10.7c9.3,4.3,14.1,12.5,15.4,22.5
		C348.3,202.4,342.3,208.2,333.7,208.2z"/>
	<path class="st1" d="M128.4,154.2c0,3.1-2.2,5.6-4.8,5.6c-2.5,0-4.7-2.3-4.4-5.4c0.2-2.7,0.8-5.3,4.3-5.5
		C126.4,148.7,128.4,151,128.4,154.2z"/>
	<path class="st1" d="M92.6,149.1c-0.2,2-1.6,3.5-4.2,3.5c-2.5,0-4.9-3.2-4.8-6.1c0.1-2.2,0.7-4.3,3.5-4.4
		C89.7,142,92.7,145.6,92.6,149.1z"/>
	<path class="st1" d="M102.5,206.6c-3.3-0.1-5.7,1.2-8.1,2.5c-2,1-3.9,2.3-6.1,2.7c-2.1,0.4-3.7-0.1-4.3-2.4
		c-0.5-2.3,0.7-2.5,2.7-3.1c3.8-1,7.3-3.1,11-4.7c2.6-1.1,4.6-0.3,6.2,1.8c0.7,0.9,1.1,2.1,0.6,3.2
		C103.9,207.6,102.9,206.6,102.5,206.6z"/>
	<path class="st3" d="M135.9,73.2c2.4,0.4,6.3-1.3,7.2,3.3c1.4,6.9,0,10.5-4.8,12.6c-11.4,5.1-23,0.9-25.6-9.6
		c-1.6-6.6-1.2-13.2,4.1-18.1c5.2-4.8,11.6-5.3,18.3-3.3c3,0.9,5.3,2.7,6.5,5.7c0.7,1.7,0.7,3.2-1,4.4s-3.1,0.6-4.4-0.7
		c-5.6-5.4-10-6.3-14-2.7c-3.9,3.6-4.5,12.6-1.1,17.2c2.8,3.8,10.7,4.8,14.6,1.9c1.5-1.2,1.2-2.6,1.1-4.1c-0.1-2.1-1.8-1.4-3-1.5
		c-0.7-0.1-1.3,0-2,0c-1.9,0.1-3.6-0.6-3.5-2.6c0-2,1.8-2.5,3.6-2.6C133.1,73.1,134.2,73.2,135.9,73.2z"/>
</g>
</svg>
